<?xml version="1.0" encoding="utf-8"?>
<!-- Generator: Adobe Illustrator 26.0.2, SVG Export Plug-In . SVG Version: 6.00 Build 0)  -->
<svg version="1.1" xmlns="http://www.w3.org/2000/svg" xmlns:xlink="http://www.w3.org/1999/xlink" x="0px" y="0px"
	 viewBox="0 0 140 40" enable-background="new 0 0 140 40" xml:space="preserve">
<g id="guides" display="none">
</g>
<g id="images">
</g>
<g id="Layer_5">
	<path fill="#FFFFFF" d="M87.1337,13.4472c0,0.0394,0,0.0787,0,0.1181c-0.2755,0.2755-0.5903,0.2755-0.8657,0
		c0-0.0394,0-0.0787,0-0.1181C86.5827,13.4472,86.8582,13.4472,87.1337,13.4472z"/>
	<path fill="#FFFFFF" d="M15.9468,13.5653c0-0.0394,0-0.0787,0-0.1181c0.1968,0,0.3935,0,0.5903,0c0,0.0394,0,0.0787,0,0.1181
		C16.3404,13.762,16.1436,13.762,15.9468,13.5653z"/>
	<path fill="#F9E9DA" d="M94.6498,13.5653c0-0.0394,0-0.0787,0-0.1181c0.1574,0,0.2755,0,0.4329,0
		c0.0394,0.0787,0.0394,0.1574-0.0394,0.1968C94.8859,13.7227,94.7678,13.7227,94.6498,13.5653z"/>
	<path fill="#F5D7B9" d="M95.0826,13.5653c0-0.0394,0-0.0787,0-0.1181c0.1574,0,0.2755,0,0.4329,0
		c0.0394,0.0787,0.0394,0.1574-0.0394,0.1968C95.3188,13.7227,95.2007,13.7227,95.0826,13.5653z"/>
	<path fill="#F9EADB" d="M95.5155,13.5653c0-0.0394,0-0.0787,0-0.1181c0.1574,0,0.2755,0,0.4329,0c0,0.0394,0,0.0787,0,0.1181
		C95.791,13.7227,95.6729,13.7227,95.5155,13.5653z"/>
	<path fill="#F9EBDC" d="M103.1497,13.5653c0-0.0394,0-0.0787,0-0.1181c0.1574,0,0.2755,0,0.4329,0
		c0.0394,0.0787,0.0394,0.1574-0.0394,0.1968C103.4252,13.7227,103.2678,13.7227,103.1497,13.5653z"/>
	<path fill="#F4D5B8" d="M103.5826,13.5653c0-0.0394,0-0.0787,0-0.1181c0.1574,0,0.2755,0,0.4329,0
		c0.0394,0.0787,0.0394,0.1574-0.0394,0.1968C103.858,13.7227,103.7006,13.7227,103.5826,13.5653z"/>
	<path fill="#F9E8D7" d="M104.0548,13.5653c0-0.0394,0-0.0787,0-0.1181c0.1574,0,0.2755,0,0.4329,0c0,0.0394,0,0.0787,0,0.1181
		C104.3302,13.7227,104.1728,13.7227,104.0548,13.5653z"/>
	<path fill="#F9EADB" d="M111.689,13.5653c0-0.0394,0-0.0787,0-0.1181c0.1574,0,0.2755,0,0.4329,0
		c0.0394,0.0787,0.0394,0.1574-0.0394,0.1968C111.9251,13.7227,111.807,13.7227,111.689,13.5653z"/>
	<path fill="#F3D3B5" d="M112.1218,13.5653c0-0.0394,0-0.0787,0-0.1181c0.1574,0,0.2755,0,0.4329,0
		c0.0394,0.0787,0.0394,0.1574-0.0394,0.1968C112.3579,13.7227,112.2399,13.7227,112.1218,13.5653z"/>
	<path fill="#F9EADB" d="M112.5547,13.5653c0-0.0394,0-0.0787,0-0.1181c0.1574,0,0.2755,0,0.4329,0c0,0.0394,0,0.0787,0,0.1181
		C112.8302,13.7227,112.7121,13.7227,112.5547,13.5653z"/>
	<path fill="#FFFFFF" d="M27.2014,21.9471c0.3935-2.6759,0.787-5.3124,1.2199-8.0671c1.1018,0,2.2037,0,3.3449,0
		c0.4329,2.5578,0.8264,5.0763,1.2593,7.6342c0.1181,0.1968-0.0394,0.4329,0.1181,0.5903c0,0.0787,0.0394,0.1574,0.0394,0.2755
		c0.0393,0.0394,0.0393,0.0394,0.0787,0c0.3542-2.794,0.7083-5.5879,1.0625-8.4606c1.2592,0,2.4791,0,3.8171,0
		c-0.9444,4.8796-1.8889,9.7198-2.8727,14.6387c-1.2199,0-2.4398,0-3.7777,0c-0.4329-2.6759-0.8657-5.3912-1.2986-8.1064
		c-0.0394,0-0.1181,0-0.1574,0c-0.3542,2.7153-0.7083,5.3911-1.0625,8.1458c-1.2592,0-2.4791,0-3.7777,0
		c-1.0625-4.8402-2.0856-9.7592-3.1481-14.6781c1.2986,0,2.5185,0,3.8171,0c0.2361,1.1018,0.3542,2.243,0.5116,3.3449
		c0.1968,1.4954,0.3935,2.9907,0.6296,4.4861c0,0.0787,0.0787,0.1574,0.1181,0.2755c0.0787,0.0787,0.0787,0.1968,0.0394,0.3148
		C27.2014,22.1832,27.1227,22.0652,27.2014,21.9471z"/>
	<path fill="#FFFFFF" d="M70.7634,13.8801c1.2199,0,2.4398,0,3.699,0c0.8264,2.3611,1.6528,4.7222,2.4791,7.0833
		c0.0394,0,0.0787,0,0.1181,0c0-2.3611,0-4.6828,0-7.0833c1.2592,0,2.4791,0,3.699,0c0,4.8796,0,9.7592,0,14.6781
		c-1.2199,0-2.4398,0-3.699,0c-0.8264-2.4004-1.6921-4.8402-2.5185-7.2407c-0.0394,0-0.0787,0.0394-0.1181,0.0394
		c0,2.4004,0,4.8009,0,7.2013c-1.2199,0-2.4004,0-3.5416,0C70.6847,28.086,70.606,15.4935,70.7634,13.8801z"/>
	<path fill="#FFFFFF" d="M55.2196,22.5374c0-0.0394,0.0394-0.0787,0.0394-0.0787l0.3542-0.2361
		c0.8657-0.5509,1.3773-1.2986,1.6134-2.2824c0.1968-0.8264,0.1574-1.6528,0-2.4398c-0.3542-1.8889-1.7315-3.1875-3.6203-3.5023
		c-1.2986-0.2361-2.6365-0.1181-3.9351-0.1574h-1.7315c0,4.9583,0,9.8379-0.0787,14.7174h3.8564v-5.4699
		c0.0787-0.0394,0.1181-0.0394,0.1574-0.0394c0.6296,1.8495,1.2986,3.699,1.9282,5.5092h4.2106
		C57.0691,26.5119,56.1247,24.505,55.2196,22.5374z M53.1733,20.0189c-0.3148,0.4722-0.7477,0.7083-1.2986,0.6296
		c-0.1181-0.1574-0.1181-0.2755-0.1181-0.3935c0.0394-0.9838,0.0394-1.9676,0.0394-3.0301c0.7083-0.0787,1.2592,0.1181,1.5347,0.669
		C53.7243,18.6022,53.6062,19.3499,53.1733,20.0189z"/>
	<path fill="#FFFFFF" d="M68.5204,17.6972c-0.7083-1.9282-2.0463-3.2268-4.0926-3.6597c-1.6921-0.3935-3.3842-0.1181-5.1157-0.1968
		v14.7568c1.6134,0,3.2268,0.1181,4.8009-0.0787c2.1643-0.2361,3.6203-1.456,4.368-3.4629
		C69.3861,22.6554,69.4255,20.137,68.5204,17.6972z M64.9394,23.4425c-0.2755,0.787-0.7083,1.4167-1.7315,1.5347v-7.28
		c0.5116-0.1574,0.8264,0.0787,1.1412,0.4329c0.5509,0.669,0.7083,1.4954,0.8264,2.3217
		C65.2936,21.4356,65.2149,22.4587,64.9394,23.4425z"/>
	<path fill="#FFFFFF" d="M20.9838,17.3036c-0.7083-2.0856-2.125-3.4629-4.4467-3.7384h-0.5903
		c-0.7477,0.1181-1.4954,0.2755-2.1643,0.669c-1.4954,0.9444-2.3217,2.3611-2.7153,4.0532
		c-0.3542,1.456-0.3935,2.9514-0.1968,4.4861c0.1574,1.3773,0.4722,2.6365,1.2592,3.7777c1.3379,1.9676,3.7384,2.8727,5.9814,1.8495
		c1.4954-0.6296,2.3611-1.8495,2.8727-3.3449C21.8496,22.498,21.8496,19.8615,20.9838,17.3036z M17.2848,23.954
		c-0.1968,0.5116-0.4722,1.0231-1.1018,1.1805c-0.669-0.1574-0.9051-0.6296-1.0625-1.1805
		c-0.4722-1.8495-0.5116-3.699,0.0787-5.5092c0.2361-0.787,0.5903-1.1018,1.1018-1.0625c0.6296,0.0787,0.8264,0.5903,0.9838,1.1018
		C17.7177,20.2944,17.757,22.1439,17.2848,23.954z"/>
	<path fill="#FFFFFF" d="M9.7293,18.3661c-0.0787-2.243-1.456-3.8958-3.6597-4.3287c-1.8495-0.3935-3.7384-0.1181-5.6666-0.1968
		c0,4.9583,0,9.8379-0.0394,14.6781h3.8564v-4.7222c0.669-0.0394,1.2592,0,1.8495-0.1181c1.7708-0.3148,2.912-1.2986,3.4629-3.0301
		C9.7687,19.9008,9.7687,19.1138,9.7293,18.3661z M5.7548,19.4286c-0.2361,0.669-0.6296,0.9444-1.456,0.9051v-3.2268
		c0.2755,0.0394,0.5116,0.0787,0.7083,0.1181C5.8335,17.6578,5.9909,18.799,5.7548,19.4286z"/>
	<path fill="#FFFFFF" d="M39.2429,13.8801c2.3217,0,4.6435,0,7.0046,0c0,1.1018,0,2.243,0,3.4629c-1.0231,0-2.125,0-3.1875,0
		c0,0.7477,0,1.3773,0,2.0856c0.9444,0.1181,1.9282,0,2.912,0.0787c0,1.1018,0,2.1643,0,3.2662
		c-0.9444,0.1181-1.8889,0-2.912,0.0787c-0.0787,0.7083-0.0394,1.3773,0,2.125c1.1018,0,2.125,0,3.2268,0
		c0,1.2199,0,2.3611,0,3.5416c-2.2824,0-4.6041,0-7.0046,0C39.2429,23.7179,39.2429,18.8384,39.2429,13.8801z"/>
	<path fill="#FFFFFF" d="M86.2679,13.5653c0.2755,0,0.5903,0,0.8657,0c0.8264,0.1181,1.6528,0.3148,2.3611,0.787
		c0,1.456,0,2.912,0,4.4861c-0.669-0.787-1.2592-1.4954-2.3217-1.6134c-0.3542,0.0394-0.669,0.2361-0.9051,0.6296
		c-0.1181,0.6296,0.3148,1.0231,0.787,1.4167c0.5509,0.4329,1.1018,0.8657,1.5741,1.3379c1.1805,1.2199,1.4166,2.7153,1.1412,4.2893
		c-0.1968,1.2199-0.7477,2.243-1.7708,3.0301c-0.9444,0.7477-1.9676,0.9444-3.1481,0.8657
		c-0.8657-0.0394-1.6528-0.2755-2.4791-0.6296c0-1.4954,0-3.0301,0-4.5648c0.2361,0.0394,0.3148,0.2755,0.4329,0.4329
		c0.5903,0.5903,1.1805,1.1018,2.0856,1.0625c0.9051-0.0394,1.2592-0.7083,0.8264-1.4954
		c-0.1968-0.3148-0.5116-0.5509-0.8264-0.8264c-0.8657-0.7477-1.7708-1.4954-2.243-2.5972
		c-1.0625-2.4004,0.3148-5.4699,2.2037-6.3356C85.4022,13.762,85.8351,13.644,86.2679,13.5653z"/>
	<path fill="#E18227" d="M115.8602,25.3313c0.2755,1.6528-1.4167,3.6203-3.5416,3.581c-1.9676-0.0394-3.5416-1.5741-3.5416-3.581
		c-0.0394-2.0463,1.6134-3.6203,3.6203-3.6597C114.1288,21.6717,116.1357,23.3244,115.8602,25.3313z"/>
	<path fill="#DD7F26" d="M103.8187,28.9123c-1.9282,0.0787-3.581-1.6528-3.581-3.6203c0-2.0069,1.7708-3.6597,3.6203-3.581
		c1.8102,0.0394,3.5416,1.3379,3.581,3.6203C107.4784,27.3383,105.7862,28.9123,103.8187,28.9123z"/>
	<path fill="#DD7F26" d="M104.0548,13.5653c0.1574,0,0.2755,0,0.4329,0c1.1018,0.3148,2.0069,0.8657,2.5578,1.9282
		c1.1018,2.2037-0.1968,4.8009-2.5578,5.1944c-2.0463,0.3542-3.7384-0.8657-4.1319-2.6759
		c-0.4329-1.8889,0.4329-3.6203,2.3611-4.2893c0.1574-0.0394,0.3148-0.1181,0.4722-0.1574c0.1574,0,0.2755,0,0.4329,0
		C103.74,13.5653,103.8974,13.5653,104.0548,13.5653z"/>
	<path fill="#DD7F26" d="M112.5547,13.5653c0.1574,0,0.2755,0,0.4329,0c1.2986,0.3148,2.3217,1.0231,2.7152,2.3217
		c0.7083,2.2037-0.3542,4.368-2.7152,4.8009c-2.125,0.3935-3.6203-1.0625-4.0532-2.3217c-0.5903-1.7315,0.1574-3.581,1.7315-4.4074
		c0.3148-0.1574,0.669-0.2755,0.9838-0.3935c0.1574,0,0.2755,0,0.4329,0C112.2792,13.5653,112.3973,13.5653,112.5547,13.5653z"/>
	<path fill="#E18227" d="M95.5155,13.5653c0.1574,0,0.2755,0,0.4329,0c0.8657,0.2361,1.5741,0.6296,2.1643,1.2986
		c1.5741,1.9282,0.7083,5.3124-2.1643,5.824c-2.0463,0.3542-3.8171-0.9838-4.1713-2.7546
		c-0.3935-2.0069,0.7477-3.7777,2.4398-4.2106c0.1181-0.0394,0.2755-0.1181,0.3935-0.1574c0.1574,0,0.2755,0,0.4329,0
		C95.2401,13.5653,95.3581,13.5653,95.5155,13.5653z"/>
	<path fill="#DD7F26" d="M91.7378,25.3313c-0.0787-1.8889,1.4954-3.6203,3.5416-3.6597c2.0069,0,3.581,1.5347,3.6203,3.581
		s-1.5347,3.581-3.5416,3.6597C93.2725,28.9517,91.6197,27.1022,91.7378,25.3313z"/>
	<path fill="#FFFFFF" d="M33.1041,22.1439c-0.1968-0.1574-0.1181-0.3935-0.1181-0.5903
		C33.2221,21.711,33.1434,21.9078,33.1041,22.1439z"/>
	<path fill="#FFFFFF" d="M27.2014,21.9471c0.0394,0.1181,0.0394,0.2755-0.0394,0.3935c-0.1181-0.1181-0.0787-0.2361-0.0787-0.3935
		C27.1227,21.9865,27.162,21.9471,27.2014,21.9471z"/>
	<path fill="#FFFFFF" d="M33.2221,22.38c0,0.0394-0.0393,0.0787-0.0393,0.1181c0-0.0394-0.0394-0.0787-0.0394-0.1181
		C33.1828,22.38,33.2221,22.38,33.2221,22.38z"/>
</g>
</svg>
